<svg width="25" height="25" viewBox="0 0 25 25" fill="none" xmlns="http://www.w3.org/2000/svg">
<path fill-rule="evenodd" clip-rule="evenodd" d="M21.4231 4.75691C21.5006 4.67943 21.562 4.58744 21.604 4.48621C21.6459 4.38498 21.6675 4.27648 21.6675 4.16691C21.6675 4.05733 21.6459 3.94883 21.604 3.8476C21.562 3.74637 21.5006 3.65439 21.4231 3.57691C21.3456 3.49943 21.2536 3.43797 21.1524 3.39603C21.0512 3.3541 20.9427 3.33252 20.8331 3.33252C20.7235 3.33252 20.615 3.3541 20.5138 3.39603C20.4125 3.43797 20.3206 3.49943 20.2431 3.57691L12.4998 11.3219L4.75642 3.57691C4.67894 3.49943 4.58696 3.43797 4.48572 3.39603C4.38449 3.3541 4.27599 3.33252 4.16642 3.33252C4.05684 3.33252 3.94834 3.3541 3.84711 3.39603C3.74588 3.43797 3.6539 3.49943 3.57642 3.57691C3.49894 3.65439 3.43748 3.74637 3.39555 3.8476C3.35361 3.94883 3.33203 4.05733 3.33203 4.16691C3.33203 4.27648 3.35361 4.38498 3.39555 4.48621C3.43748 4.58744 3.49894 4.67943 3.57642 4.75691L11.3214 12.5002L3.57642 20.2436C3.41994 20.4 3.33203 20.6123 3.33203 20.8336C3.33203 21.0549 3.41994 21.2671 3.57642 21.4236C3.73289 21.58 3.94512 21.668 4.16642 21.668C4.38771 21.668 4.59994 21.58 4.75642 21.4236L12.4998 13.6786L20.2431 21.4236C20.3996 21.58 20.6118 21.668 20.8331 21.668C21.0544 21.668 21.2666 21.58 21.4231 21.4236C21.5796 21.2671 21.6675 21.0549 21.6675 20.8336C21.6675 20.6123 21.5796 20.4 21.4231 20.2436L13.6781 12.5002L21.4231 4.75691Z" fill="#DDDDDD"/>
</svg>
